<?xml version="1.0" encoding="UTF-8"?>
<svg id="_레이어_2" data-name="레이어 2" xmlns="http://www.w3.org/2000/svg" viewBox="0 0 99.61 71.88">
  <defs>
    <style>
      .cls-1 {
        fill: #0a2240;
      }
    </style>
  </defs>
  <g id="_레이어_1-2" data-name="레이어 1">
    <g>
      <rect class="cls-1" x=".02" width="15.62" height="45.56"/>
      <path class="cls-1" d="M24.47,0h-4.29V45.56h4.29c12.73,0,23.05-10.2,23.05-22.78S37.2,0,24.47,0"/>
      <rect class="cls-1" x="52.09" width="15.62" height="45.56"/>
      <rect class="cls-1" x="72.27" y="29.94" width="27.34" height="15.62"/>
      <path class="cls-1" d="M7.59,63.21c-.05-.43-.21-2.18-2.01-2.18-1.97,0-2.8,2.06-2.8,4.62,0,.74,0,4.26,2.59,4.26,1.12,0,2.18-.7,2.23-2.35h2.8c-.05,.74-.12,1.89-1.12,2.92-1.1,1.13-2.49,1.39-3.62,1.39-4.27,0-5.66-3.16-5.66-6.23,0-3.93,2.2-6.54,5.68-6.54,2.71,0,4.62,1.65,4.62,4.12h-2.71Z"/>
      <path class="cls-1" d="M15.89,62.69c3.14,0,4.5,2.13,4.5,4.55s-1.41,4.63-4.55,4.63c-2.47,0-4.43-1.53-4.43-4.57,0-2.1,1.07-4.62,4.48-4.62m.03,7.42c1.12,0,1.87-.67,1.87-2.97,0-1.15-.22-2.75-1.91-2.75-1.85,0-1.87,2.14-1.87,2.93,0,1.94,.65,2.78,1.91,2.78"/>
      <path class="cls-1" d="M21.73,64.44s0-.98-.05-1.58h2.44l.07,1.3c.24-.39,.93-1.51,2.82-1.51,1.7,0,2.42,1.03,2.64,1.63,.19,.53,.24,.98,.24,2.59v4.69h-2.59v-5.39c0-.36,0-.67-.14-.94-.19-.38-.58-.74-1.24-.74-.55,0-1.05,.26-1.32,.67-.15,.22-.31,.65-.31,1.32v5.08h-2.56v-7.12Z"/>
      <path class="cls-1" d="M33.6,69.06c.03,.55,.38,1.19,1.44,1.19,.91,0,1.34-.52,1.34-1.03,0-.4-.21-.7-1.2-.98l-1.58-.43c-.7-.21-2.2-.63-2.2-2.4s1.54-2.71,3.79-2.71c1.78,0,3.23,.83,3.3,2.56h-2.32c-.07-.96-.84-1.03-1.24-1.03-.69,0-1.2,.33-1.2,.86,0,.58,.43,.7,1.18,.91l1.56,.43c1.58,.43,2.32,1.24,2.32,2.42,0,1.49-1.29,2.99-3.98,2.99-1.12,0-2.18-.24-2.97-1.06-.57-.6-.62-1.29-.64-1.7h2.39Z"/>
      <path class="cls-1" d="M45.34,71.45c-.82,.22-1.56,.27-1.97,.27-2.56,0-2.56-1.61-2.56-2.33v-4.75h-1.66v-1.68h1.66v-1.7l2.52-.93v2.63h2.06v1.68h-2.06v3.91c.02,.79,.02,1.29,1.15,1.29,.38,0,.55-.02,.86-.05v1.66Z"/>
      <path class="cls-1" d="M46.74,65.03c0-.41-.07-1.66-.12-2.16h2.39l.05,1.67c.33-.74,.89-1.79,2.95-1.68v2.28c-2.58-.24-2.73,1.08-2.73,2.16v4.27h-2.54v-6.54Z"/>
      <path class="cls-1" d="M55.74,62.9v5.17c0,.76,0,1.9,1.35,1.9,1.63,0,1.63-1.22,1.63-2.7v-4.38h2.61v5.72c.03,1.87,.05,2.1,.05,2.32,.02,.24,.03,.39,.07,.63h-2.47l-.09-1.15c-.26,.38-.91,1.37-2.56,1.37-1.17,0-2.13-.53-2.61-1.17-.57-.7-.57-1.91-.57-2.33v-5.39h2.58Z"/>
      <path class="cls-1" d="M67.72,65.97c-.03-.31-.14-1.6-1.12-1.6-1.2,0-1.34,1.82-1.34,2.76,0,.48,.05,2.03,.64,2.66,.24,.26,.5,.29,.69,.29,.28,0,1.07-.12,1.17-1.67h2.51c-.03,.67-.12,1.72-1.12,2.56-.62,.53-1.39,.81-2.47,.81-1.15,0-2.16-.26-2.95-1.15-.76-.88-1.1-2.02-1.1-3.42,0-3.95,2.9-4.5,4.05-4.5,1.61,0,3.52,.89,3.54,3.24h-2.49Z"/>
      <path class="cls-1" d="M76.64,71.45c-.82,.22-1.56,.27-1.97,.27-2.56,0-2.56-1.61-2.56-2.33v-4.75h-1.66v-1.68h1.66v-1.7l2.52-.93v2.63h2.06v1.68h-2.06v3.91c.02,.79,.02,1.29,1.15,1.29,.38,0,.55-.02,.86-.05v1.66Z"/>
      <path class="cls-1" d="M77.62,59.17h2.71v2.21h-2.71v-2.21Zm.09,3.71h2.54v8.69h-2.54v-8.69Z"/>
      <path class="cls-1" d="M85.87,62.69c3.14,0,4.5,2.13,4.5,4.55s-1.41,4.63-4.55,4.63c-2.47,0-4.43-1.53-4.43-4.57,0-2.1,1.06-4.62,4.48-4.62m.04,7.42c1.11,0,1.87-.67,1.87-2.97,0-1.15-.22-2.75-1.91-2.75-1.85,0-1.87,2.14-1.87,2.93,0,1.94,.65,2.78,1.91,2.78"/>
      <path class="cls-1" d="M91.45,64.44s0-.98-.05-1.58h2.44l.07,1.3c.24-.39,.93-1.51,2.82-1.51,1.7,0,2.42,1.03,2.64,1.63,.19,.53,.24,.98,.24,2.59v4.69h-2.59v-5.39c0-.36,0-.67-.14-.94-.19-.38-.58-.74-1.24-.74-.55,0-1.05,.26-1.32,.67-.15,.22-.31,.65-.31,1.32v5.08h-2.56v-7.12Z"/>
    </g>
  </g>
</svg>